<?xml version="1.0" encoding="utf-8" standalone="no"?>
<!DOCTYPE svg PUBLIC "-//W3C//DTD SVG 1.1//EN"
  "http://www.w3.org/Graphics/SVG/1.1/DTD/svg11.dtd">
<svg xmlns:xlink="http://www.w3.org/1999/xlink" width="648pt" height="331.2pt" viewBox="0 0 648 331.2" xmlns="http://www.w3.org/2000/svg" version="1.1">
 <metadata>
  <rdf:RDF xmlns:dc="http://purl.org/dc/elements/1.1/" xmlns:cc="http://creativecommons.org/ns#" xmlns:rdf="http://www.w3.org/1999/02/22-rdf-syntax-ns#">
   <cc:Work>
    <dc:type rdf:resource="http://purl.org/dc/dcmitype/StillImage"/>
    <dc:date>2026-09-14T09:06:03.429096</dc:date>
    <dc:format>image/svg+xml</dc:format>
    <dc:creator>
     <cc:Agent>
      <dc:title>Matplotlib v3.11.1, https://matplotlib.org/</dc:title>
     </cc:Agent>
    </dc:creator>
   </cc:Work>
  </rdf:RDF>
 </metadata>
 <defs>
  <style type="text/css">*{stroke-linejoin: round; stroke-linecap: butt}</style>
 </defs>
 <g id="figure_1">
  <g id="patch_1">
   <path d="M 0 331.2 
L 648 331.2 
L 648 0 
L 0 0 
z
" style="fill: #ffffff"/>
  </g>
  <g id="axes_1">
   <g id="LineCollection_1">
    <path d="M 155.539124 157.231943 
L 261.647061 100.231649 
" clip-path="url(#pe50d31319a)" style="fill: none; stroke: #cccccc; stroke-width: 1.6"/>
    <path d="M 155.539124 157.231943 
L 190.32731 297.178756 
" clip-path="url(#pe50d31319a)" style="fill: none; stroke: #cccccc; stroke-width: 1.6"/>
    <path d="M 155.539124 157.231943 
L 37.509917 147.705406 
" clip-path="url(#pe50d31319a)" style="fill: none; stroke: #cccccc; stroke-width: 1.6"/>
    <path d="M 261.647061 100.231649 
L 291.890083 226.261769 
" clip-path="url(#pe50d31319a)" style="fill: none; stroke: #cccccc; stroke-width: 1.6"/>
    <path d="M 261.647061 100.231649 
L 139.692013 76.024056 
" clip-path="url(#pe50d31319a)" style="fill: none; stroke: #cccccc; stroke-width: 1.6"/>
    <path d="M 190.32731 297.178756 
L 291.890083 226.261769 
" clip-path="url(#pe50d31319a)" style="fill: none; stroke: #cccccc; stroke-width: 1.6"/>
    <path d="M 190.32731 297.178756 
L 67.516544 274.255163 
" clip-path="url(#pe50d31319a)" style="fill: none; stroke: #cccccc; stroke-width: 1.6"/>
    <path d="M 291.890083 226.261769 
L 172.434526 216.37276 
" clip-path="url(#pe50d31319a)" style="fill: none; stroke: #cccccc; stroke-width: 1.6"/>
    <path d="M 37.509917 147.705406 
L 139.692013 76.024056 
" clip-path="url(#pe50d31319a)" style="fill: none; stroke: #cccccc; stroke-width: 1.6"/>
    <path d="M 37.509917 147.705406 
L 67.516544 274.255163 
" clip-path="url(#pe50d31319a)" style="fill: none; stroke: #cccccc; stroke-width: 1.6"/>
    <path d="M 139.692013 76.024056 
L 172.434526 216.37276 
" clip-path="url(#pe50d31319a)" style="fill: none; stroke: #cccccc; stroke-width: 1.6"/>
    <path d="M 67.516544 274.255163 
L 172.434526 216.37276 
" clip-path="url(#pe50d31319a)" style="fill: none; stroke: #cccccc; stroke-width: 1.6"/>
   </g>
   <g id="PathCollection_1">
    <defs>
     <path id="C0_0_457e06f4b2" d="M 0 10.368221 
C 2.749684 10.368221 5.387119 9.27576 7.331439 7.331439 
C 9.27576 5.387119 10.368221 2.749684 10.368221 -0 
C 10.368221 -2.749684 9.27576 -5.387119 7.331439 -7.331439 
C 5.387119 -9.27576 2.749684 -10.368221 0 -10.368221 
C -2.749684 -10.368221 -5.387119 -9.27576 -7.331439 -7.331439 
C -9.27576 -5.387119 -10.368221 -2.749684 -10.368221 0 
C -10.368221 2.749684 -9.27576 5.387119 -7.331439 7.331439 
C -5.387119 9.27576 -2.749684 10.368221 0 10.368221 
z
"/>
    </defs>
    <g clip-path="url(#pe50d31319a)">
     <use xlink:href="#C0_0_457e06f4b2" x="155.539124" y="157.231943" style="fill: #9a7b1f; stroke: #ffffff; stroke-width: 1.5"/>
    </g>
    <g clip-path="url(#pe50d31319a)">
     <use xlink:href="#C0_0_457e06f4b2" x="261.647061" y="100.231649" style="fill: #9a7b1f; stroke: #ffffff; stroke-width: 1.5"/>
    </g>
    <g clip-path="url(#pe50d31319a)">
     <use xlink:href="#C0_0_457e06f4b2" x="190.32731" y="297.178756" style="fill: #9a7b1f; stroke: #ffffff; stroke-width: 1.5"/>
    </g>
    <g clip-path="url(#pe50d31319a)">
     <use xlink:href="#C0_0_457e06f4b2" x="291.890083" y="226.261769" style="fill: #9a7b1f; stroke: #ffffff; stroke-width: 1.5"/>
    </g>
    <g clip-path="url(#pe50d31319a)">
     <use xlink:href="#C0_0_457e06f4b2" x="37.509917" y="147.705406" style="fill: #9a7b1f; stroke: #ffffff; stroke-width: 1.5"/>
    </g>
    <g clip-path="url(#pe50d31319a)">
     <use xlink:href="#C0_0_457e06f4b2" x="139.692013" y="76.024056" style="fill: #9a7b1f; stroke: #ffffff; stroke-width: 1.5"/>
    </g>
    <g clip-path="url(#pe50d31319a)">
     <use xlink:href="#C0_0_457e06f4b2" x="67.516544" y="274.255163" style="fill: #9a7b1f; stroke: #ffffff; stroke-width: 1.5"/>
    </g>
    <g clip-path="url(#pe50d31319a)">
     <use xlink:href="#C0_0_457e06f4b2" x="172.434526" y="216.37276" style="fill: #9a7b1f; stroke: #ffffff; stroke-width: 1.5"/>
    </g>
   </g>
   <g id="text_1">
    <!-- G = Q₃ -->
    <g style="fill: #0d0d0d" transform="translate(142.362344 46.802813) scale(0.13 -0.13)">
     <defs>
      <path id="DejaVuSans-2a" d="M 3809 666 
L 3809 1919 
L 2778 1919 
L 2778 2438 
L 4434 2438 
L 4434 434 
Q 4069 175 3628 42 
Q 3188 -91 2688 -91 
Q 1594 -91 976 548 
Q 359 1188 359 2328 
Q 359 3472 976 4111 
Q 1594 4750 2688 4750 
Q 3144 4750 3555 4637 
Q 3966 4525 4313 4306 
L 4313 3634 
Q 3963 3931 3569 4081 
Q 3175 4231 2741 4231 
Q 1884 4231 1454 3753 
Q 1025 3275 1025 2328 
Q 1025 1384 1454 906 
Q 1884 428 2741 428 
Q 3075 428 3337 486 
Q 3600 544 3809 666 
z
" transform="scale(0.015625)"/>
      <path id="DejaVuSans-3" transform="scale(0.015625)"/>
      <path id="DejaVuSans-20" d="M 678 2906 
L 4684 2906 
L 4684 2381 
L 678 2381 
L 678 2906 
z
M 678 1631 
L 4684 1631 
L 4684 1100 
L 678 1100 
L 678 1631 
z
" transform="scale(0.015625)"/>
      <path id="DejaVuSans-34" d="M 2522 4238 
Q 1834 4238 1429 3725 
Q 1025 3213 1025 2328 
Q 1025 1447 1429 934 
Q 1834 422 2522 422 
Q 3209 422 3611 934 
Q 4013 1447 4013 2328 
Q 4013 3213 3611 3725 
Q 3209 4238 2522 4238 
z
M 3406 84 
L 4238 -825 
L 3475 -825 
L 2784 -78 
Q 2681 -84 2626 -87 
Q 2572 -91 2522 -91 
Q 1538 -91 948 567 
Q 359 1225 359 2328 
Q 359 3434 948 4092 
Q 1538 4750 2522 4750 
Q 3503 4750 4090 4092 
Q 4678 3434 4678 2328 
Q 4678 1516 4351 937 
Q 4025 359 3406 84 
z
" transform="scale(0.015625)"/>
      <path id="DejaVuSans-b5e" d="M 1638 1412 
Q 1925 1356 2083 1185 
Q 2241 1015 2241 759 
Q 2241 371 1944 162 
Q 1647 -47 1094 -47 
Q 916 -47 720 -14 
Q 525 18 306 81 
L 306 459 
Q 469 375 655 334 
Q 841 293 1050 293 
Q 1391 293 1578 416 
Q 1766 540 1766 759 
Q 1766 990 1592 1109 
Q 1419 1228 1081 1228 
L 813 1228 
L 813 1565 
L 1106 1565 
Q 1400 1565 1551 1663 
Q 1703 1762 1703 1950 
Q 1703 2131 1547 2226 
Q 1391 2321 1094 2321 
Q 969 2321 809 2293 
Q 650 2265 397 2193 
L 397 2553 
Q 625 2606 825 2634 
Q 1025 2662 1197 2662 
Q 1647 2662 1911 2477 
Q 2175 2293 2175 1984 
Q 2175 1768 2034 1618 
Q 1894 1468 1638 1412 
z
" transform="scale(0.015625)"/>
     </defs>
     <use xlink:href="#DejaVuSans-2a"/>
     <use xlink:href="#DejaVuSans-3" transform="translate(77.484375 0)"/>
     <use xlink:href="#DejaVuSans-20" transform="translate(109.265625 0)"/>
     <use xlink:href="#DejaVuSans-3" transform="translate(193.0625 0)"/>
     <use xlink:href="#DejaVuSans-34" transform="translate(224.84375 0)"/>
     <use xlink:href="#DejaVuSans-b5e" transform="translate(303.5625 0)"/>
    </g>
   </g>
  </g>
  <g id="axes_2">
   <g id="LineCollection_2">
    <path d="M 474.139124 157.231943 
L 610.490083 226.261769 
" clip-path="url(#p8f2a613aa1)" style="fill: none; stroke: #cccccc; stroke-width: 1.6"/>
    <path d="M 474.139124 157.231943 
L 458.292013 76.024056 
" clip-path="url(#p8f2a613aa1)" style="fill: none; stroke: #cccccc; stroke-width: 1.6"/>
    <path d="M 474.139124 157.231943 
L 386.116544 274.255163 
" clip-path="url(#p8f2a613aa1)" style="fill: none; stroke: #cccccc; stroke-width: 1.6"/>
    <path d="M 474.139124 157.231943 
L 491.034526 216.37276 
" clip-path="url(#p8f2a613aa1)" style="fill: none; stroke: #cccccc; stroke-width: 1.6"/>
    <path d="M 580.247061 100.231649 
L 508.92731 297.178756 
" clip-path="url(#p8f2a613aa1)" style="fill: none; stroke: #cccccc; stroke-width: 1.6"/>
    <path d="M 580.247061 100.231649 
L 356.109917 147.705406 
" clip-path="url(#p8f2a613aa1)" style="fill: none; stroke: #cccccc; stroke-width: 1.6"/>
    <path d="M 580.247061 100.231649 
L 386.116544 274.255163 
" clip-path="url(#p8f2a613aa1)" style="fill: none; stroke: #cccccc; stroke-width: 1.6"/>
    <path d="M 580.247061 100.231649 
L 491.034526 216.37276 
" clip-path="url(#p8f2a613aa1)" style="fill: none; stroke: #cccccc; stroke-width: 1.6"/>
    <path d="M 508.92731 297.178756 
L 356.109917 147.705406 
" clip-path="url(#p8f2a613aa1)" style="fill: none; stroke: #cccccc; stroke-width: 1.6"/>
    <path d="M 508.92731 297.178756 
L 458.292013 76.024056 
" clip-path="url(#p8f2a613aa1)" style="fill: none; stroke: #cccccc; stroke-width: 1.6"/>
    <path d="M 508.92731 297.178756 
L 491.034526 216.37276 
" clip-path="url(#p8f2a613aa1)" style="fill: none; stroke: #cccccc; stroke-width: 1.6"/>
    <path d="M 610.490083 226.261769 
L 356.109917 147.705406 
" clip-path="url(#p8f2a613aa1)" style="fill: none; stroke: #cccccc; stroke-width: 1.6"/>
    <path d="M 610.490083 226.261769 
L 458.292013 76.024056 
" clip-path="url(#p8f2a613aa1)" style="fill: none; stroke: #cccccc; stroke-width: 1.6"/>
    <path d="M 610.490083 226.261769 
L 386.116544 274.255163 
" clip-path="url(#p8f2a613aa1)" style="fill: none; stroke: #cccccc; stroke-width: 1.6"/>
    <path d="M 356.109917 147.705406 
L 491.034526 216.37276 
" clip-path="url(#p8f2a613aa1)" style="fill: none; stroke: #cccccc; stroke-width: 1.6"/>
    <path d="M 458.292013 76.024056 
L 386.116544 274.255163 
" clip-path="url(#p8f2a613aa1)" style="fill: none; stroke: #cccccc; stroke-width: 1.6"/>
   </g>
   <g id="PathCollection_2">
    <defs>
     <path id="C1_0_6727df598b" d="M 0 10.368221 
C 2.749684 10.368221 5.387119 9.27576 7.331439 7.331439 
C 9.27576 5.387119 10.368221 2.749684 10.368221 -0 
C 10.368221 -2.749684 9.27576 -5.387119 7.331439 -7.331439 
C 5.387119 -9.27576 2.749684 -10.368221 0 -10.368221 
C -2.749684 -10.368221 -5.387119 -9.27576 -7.331439 -7.331439 
C -9.27576 -5.387119 -10.368221 -2.749684 -10.368221 0 
C -10.368221 2.749684 -9.27576 5.387119 -7.331439 7.331439 
C -5.387119 9.27576 -2.749684 10.368221 0 10.368221 
z
"/>
    </defs>
    <g clip-path="url(#p8f2a613aa1)">
     <use xlink:href="#C1_0_6727df598b" x="474.139124" y="157.231943" style="fill: #9a7b1f; stroke: #ffffff; stroke-width: 1.5"/>
    </g>
    <g clip-path="url(#p8f2a613aa1)">
     <use xlink:href="#C1_0_6727df598b" x="580.247061" y="100.231649" style="fill: #9a7b1f; stroke: #ffffff; stroke-width: 1.5"/>
    </g>
    <g clip-path="url(#p8f2a613aa1)">
     <use xlink:href="#C1_0_6727df598b" x="508.92731" y="297.178756" style="fill: #9a7b1f; stroke: #ffffff; stroke-width: 1.5"/>
    </g>
    <g clip-path="url(#p8f2a613aa1)">
     <use xlink:href="#C1_0_6727df598b" x="610.490083" y="226.261769" style="fill: #9a7b1f; stroke: #ffffff; stroke-width: 1.5"/>
    </g>
    <g clip-path="url(#p8f2a613aa1)">
     <use xlink:href="#C1_0_6727df598b" x="356.109917" y="147.705406" style="fill: #9a7b1f; stroke: #ffffff; stroke-width: 1.5"/>
    </g>
    <g clip-path="url(#p8f2a613aa1)">
     <use xlink:href="#C1_0_6727df598b" x="458.292013" y="76.024056" style="fill: #9a7b1f; stroke: #ffffff; stroke-width: 1.5"/>
    </g>
    <g clip-path="url(#p8f2a613aa1)">
     <use xlink:href="#C1_0_6727df598b" x="386.116544" y="274.255163" style="fill: #9a7b1f; stroke: #ffffff; stroke-width: 1.5"/>
    </g>
    <g clip-path="url(#p8f2a613aa1)">
     <use xlink:href="#C1_0_6727df598b" x="491.034526" y="216.37276" style="fill: #9a7b1f; stroke: #ffffff; stroke-width: 1.5"/>
    </g>
   </g>
   <g id="text_2">
    <!-- Ḡ (complemento) -->
    <g style="fill: #0d0d0d" transform="translate(426.335625 46.802813) scale(0.13 -0.13)">
     <defs>
      <path id="DejaVuSans-91d" d="M 3809 666 
L 3809 1919 
L 2778 1919 
L 2778 2438 
L 4434 2438 
L 4434 434 
Q 4069 175 3628 42 
Q 3188 -91 2688 -91 
Q 1594 -91 976 548 
Q 359 1188 359 2328 
Q 359 3472 976 4111 
Q 1594 4750 2688 4750 
Q 3144 4750 3555 4637 
Q 3966 4525 4313 4306 
L 4313 3634 
Q 3963 3931 3569 4081 
Q 3175 4231 2741 4231 
Q 1884 4231 1454 3753 
Q 1025 3275 1025 2328 
Q 1025 1384 1454 906 
Q 1884 428 2741 428 
Q 3075 428 3337 486 
Q 3600 544 3809 666 
z
M 1622 5675 
L 3490 5675 
L 3490 5212 
L 1622 5212 
L 1622 5675 
z
" transform="scale(0.015625)"/>
      <path id="DejaVuSans-b" d="M 1984 4856 
Q 1566 4138 1362 3434 
Q 1159 2731 1159 2009 
Q 1159 1288 1364 580 
Q 1569 -128 1984 -844 
L 1484 -844 
Q 1016 -109 783 600 
Q 550 1309 550 2009 
Q 550 2706 781 3412 
Q 1013 4119 1484 4856 
L 1984 4856 
z
" transform="scale(0.015625)"/>
      <path id="DejaVuSans-46" d="M 3122 3366 
L 3122 2828 
Q 2878 2963 2633 3030 
Q 2388 3097 2138 3097 
Q 1578 3097 1268 2742 
Q 959 2388 959 1747 
Q 959 1106 1268 751 
Q 1578 397 2138 397 
Q 2388 397 2633 464 
Q 2878 531 3122 666 
L 3122 134 
Q 2881 22 2623 -34 
Q 2366 -91 2075 -91 
Q 1284 -91 818 406 
Q 353 903 353 1747 
Q 353 2603 823 3093 
Q 1294 3584 2113 3584 
Q 2378 3584 2631 3529 
Q 2884 3475 3122 3366 
z
" transform="scale(0.015625)"/>
      <path id="DejaVuSans-52" d="M 1959 3097 
Q 1497 3097 1228 2736 
Q 959 2375 959 1747 
Q 959 1119 1226 758 
Q 1494 397 1959 397 
Q 2419 397 2687 759 
Q 2956 1122 2956 1747 
Q 2956 2369 2687 2733 
Q 2419 3097 1959 3097 
z
M 1959 3584 
Q 2709 3584 3137 3096 
Q 3566 2609 3566 1747 
Q 3566 888 3137 398 
Q 2709 -91 1959 -91 
Q 1206 -91 779 398 
Q 353 888 353 1747 
Q 353 2609 779 3096 
Q 1206 3584 1959 3584 
z
" transform="scale(0.015625)"/>
      <path id="DejaVuSans-50" d="M 3328 2828 
Q 3544 3216 3844 3400 
Q 4144 3584 4550 3584 
Q 5097 3584 5394 3201 
Q 5691 2819 5691 2113 
L 5691 0 
L 5113 0 
L 5113 2094 
Q 5113 2597 4934 2840 
Q 4756 3084 4391 3084 
Q 3944 3084 3684 2787 
Q 3425 2491 3425 1978 
L 3425 0 
L 2847 0 
L 2847 2094 
Q 2847 2600 2669 2842 
Q 2491 3084 2119 3084 
Q 1678 3084 1418 2786 
Q 1159 2488 1159 1978 
L 1159 0 
L 581 0 
L 581 3500 
L 1159 3500 
L 1159 2956 
Q 1356 3278 1631 3431 
Q 1906 3584 2284 3584 
Q 2666 3584 2933 3390 
Q 3200 3197 3328 2828 
z
" transform="scale(0.015625)"/>
      <path id="DejaVuSans-53" d="M 1159 525 
L 1159 -1331 
L 581 -1331 
L 581 3500 
L 1159 3500 
L 1159 2969 
Q 1341 3281 1617 3432 
Q 1894 3584 2278 3584 
Q 2916 3584 3314 3078 
Q 3713 2572 3713 1747 
Q 3713 922 3314 415 
Q 2916 -91 2278 -91 
Q 1894 -91 1617 61 
Q 1341 213 1159 525 
z
M 3116 1747 
Q 3116 2381 2855 2742 
Q 2594 3103 2138 3103 
Q 1681 3103 1420 2742 
Q 1159 2381 1159 1747 
Q 1159 1113 1420 752 
Q 1681 391 2138 391 
Q 2594 391 2855 752 
Q 3116 1113 3116 1747 
z
" transform="scale(0.015625)"/>
      <path id="DejaVuSans-4f" d="M 603 4863 
L 1178 4863 
L 1178 0 
L 603 0 
L 603 4863 
z
" transform="scale(0.015625)"/>
      <path id="DejaVuSans-48" d="M 3597 1894 
L 3597 1613 
L 953 1613 
Q 991 1019 1311 708 
Q 1631 397 2203 397 
Q 2534 397 2845 478 
Q 3156 559 3463 722 
L 3463 178 
Q 3153 47 2828 -22 
Q 2503 -91 2169 -91 
Q 1331 -91 842 396 
Q 353 884 353 1716 
Q 353 2575 817 3079 
Q 1281 3584 2069 3584 
Q 2775 3584 3186 3129 
Q 3597 2675 3597 1894 
z
M 3022 2063 
Q 3016 2534 2758 2815 
Q 2500 3097 2075 3097 
Q 1594 3097 1305 2825 
Q 1016 2553 972 2059 
L 3022 2063 
z
" transform="scale(0.015625)"/>
      <path id="DejaVuSans-51" d="M 3513 2113 
L 3513 0 
L 2938 0 
L 2938 2094 
Q 2938 2591 2744 2837 
Q 2550 3084 2163 3084 
Q 1697 3084 1428 2787 
Q 1159 2491 1159 1978 
L 1159 0 
L 581 0 
L 581 3500 
L 1159 3500 
L 1159 2956 
Q 1366 3272 1645 3428 
Q 1925 3584 2291 3584 
Q 2894 3584 3203 3211 
Q 3513 2838 3513 2113 
z
" transform="scale(0.015625)"/>
      <path id="DejaVuSans-57" d="M 1172 4494 
L 1172 3500 
L 2356 3500 
L 2356 3053 
L 1172 3053 
L 1172 1153 
Q 1172 725 1289 603 
Q 1406 481 1766 481 
L 2356 481 
L 2356 0 
L 1766 0 
Q 1100 0 847 248 
Q 594 497 594 1153 
L 594 3053 
L 172 3053 
L 172 3500 
L 594 3500 
L 594 4494 
L 1172 4494 
z
" transform="scale(0.015625)"/>
      <path id="DejaVuSans-c" d="M 513 4856 
L 1013 4856 
Q 1481 4119 1714 3412 
Q 1947 2706 1947 2009 
Q 1947 1309 1714 600 
Q 1481 -109 1013 -844 
L 513 -844 
Q 928 -128 1133 580 
Q 1338 1288 1338 2009 
Q 1338 2731 1133 3434 
Q 928 4138 513 4856 
z
" transform="scale(0.015625)"/>
     </defs>
     <use xlink:href="#DejaVuSans-91d"/>
     <use xlink:href="#DejaVuSans-3" transform="translate(77.484375 0)"/>
     <use xlink:href="#DejaVuSans-b" transform="translate(109.265625 0)"/>
     <use xlink:href="#DejaVuSans-46" transform="translate(148.28125 0)"/>
     <use xlink:href="#DejaVuSans-52" transform="translate(203.265625 0)"/>
     <use xlink:href="#DejaVuSans-50" transform="translate(264.453125 0)"/>
     <use xlink:href="#DejaVuSans-53" transform="translate(361.859375 0)"/>
     <use xlink:href="#DejaVuSans-4f" transform="translate(425.34375 0)"/>
     <use xlink:href="#DejaVuSans-48" transform="translate(453.125 0)"/>
     <use xlink:href="#DejaVuSans-50" transform="translate(514.65625 0)"/>
     <use xlink:href="#DejaVuSans-48" transform="translate(612.0625 0)"/>
     <use xlink:href="#DejaVuSans-51" transform="translate(673.59375 0)"/>
     <use xlink:href="#DejaVuSans-57" transform="translate(736.96875 0)"/>
     <use xlink:href="#DejaVuSans-52" transform="translate(776.171875 0)"/>
     <use xlink:href="#DejaVuSans-c" transform="translate(837.359375 0)"/>
    </g>
   </g>
  </g>
  <g id="text_3">
   <!-- T4: la misma PARTICIÓN en G y Ḡ (las etiquetas de color son arbitrarias) -->
   <g style="fill: #0d0d0d" transform="translate(106.937813 17.752125) scale(0.12 -0.12)">
    <defs>
     <path id="DejaVuSans-37" d="M -19 4666 
L 3928 4666 
L 3928 4134 
L 2272 4134 
L 2272 0 
L 1638 0 
L 1638 4134 
L -19 4134 
L -19 4666 
z
" transform="scale(0.015625)"/>
     <path id="DejaVuSans-17" d="M 2419 4116 
L 825 1625 
L 2419 1625 
L 2419 4116 
z
M 2253 4666 
L 3047 4666 
L 3047 1625 
L 3713 1625 
L 3713 1100 
L 3047 1100 
L 3047 0 
L 2419 0 
L 2419 1100 
L 313 1100 
L 313 1709 
L 2253 4666 
z
" transform="scale(0.015625)"/>
     <path id="DejaVuSans-1d" d="M 750 794 
L 1409 794 
L 1409 0 
L 750 0 
L 750 794 
z
M 750 3309 
L 1409 3309 
L 1409 2516 
L 750 2516 
L 750 3309 
z
" transform="scale(0.015625)"/>
     <path id="DejaVuSans-44" d="M 2194 1759 
Q 1497 1759 1228 1600 
Q 959 1441 959 1056 
Q 959 750 1161 570 
Q 1363 391 1709 391 
Q 2188 391 2477 730 
Q 2766 1069 2766 1631 
L 2766 1759 
L 2194 1759 
z
M 3341 1997 
L 3341 0 
L 2766 0 
L 2766 531 
Q 2569 213 2275 61 
Q 1981 -91 1556 -91 
Q 1019 -91 701 211 
Q 384 513 384 1019 
Q 384 1609 779 1909 
Q 1175 2209 1959 2209 
L 2766 2209 
L 2766 2266 
Q 2766 2663 2505 2880 
Q 2244 3097 1772 3097 
Q 1472 3097 1187 3025 
Q 903 2953 641 2809 
L 641 3341 
Q 956 3463 1253 3523 
Q 1550 3584 1831 3584 
Q 2591 3584 2966 3190 
Q 3341 2797 3341 1997 
z
" transform="scale(0.015625)"/>
     <path id="DejaVuSans-4c" d="M 603 3500 
L 1178 3500 
L 1178 0 
L 603 0 
L 603 3500 
z
M 603 4863 
L 1178 4863 
L 1178 4134 
L 603 4134 
L 603 4863 
z
" transform="scale(0.015625)"/>
     <path id="DejaVuSans-56" d="M 2834 3397 
L 2834 2853 
Q 2591 2978 2328 3040 
Q 2066 3103 1784 3103 
Q 1356 3103 1142 2972 
Q 928 2841 928 2578 
Q 928 2378 1081 2264 
Q 1234 2150 1697 2047 
L 1894 2003 
Q 2506 1872 2764 1633 
Q 3022 1394 3022 966 
Q 3022 478 2636 193 
Q 2250 -91 1575 -91 
Q 1294 -91 989 -36 
Q 684 19 347 128 
L 347 722 
Q 666 556 975 473 
Q 1284 391 1588 391 
Q 1994 391 2212 530 
Q 2431 669 2431 922 
Q 2431 1156 2273 1281 
Q 2116 1406 1581 1522 
L 1381 1569 
Q 847 1681 609 1914 
Q 372 2147 372 2553 
Q 372 3047 722 3315 
Q 1072 3584 1716 3584 
Q 2034 3584 2315 3537 
Q 2597 3491 2834 3397 
z
" transform="scale(0.015625)"/>
     <path id="DejaVuSans-33" d="M 1259 4147 
L 1259 2394 
L 2053 2394 
Q 2494 2394 2734 2622 
Q 2975 2850 2975 3272 
Q 2975 3691 2734 3919 
Q 2494 4147 2053 4147 
L 1259 4147 
z
M 628 4666 
L 2053 4666 
Q 2838 4666 3239 4311 
Q 3641 3956 3641 3272 
Q 3641 2581 3239 2228 
Q 2838 1875 2053 1875 
L 1259 1875 
L 1259 0 
L 628 0 
L 628 4666 
z
" transform="scale(0.015625)"/>
     <path id="DejaVuSans-24" d="M 2188 4044 
L 1331 1722 
L 3047 1722 
L 2188 4044 
z
M 1831 4666 
L 2547 4666 
L 4325 0 
L 3669 0 
L 3244 1197 
L 1141 1197 
L 716 0 
L 50 0 
L 1831 4666 
z
" transform="scale(0.015625)"/>
     <path id="DejaVuSans-35" d="M 2841 2188 
Q 3044 2119 3236 1894 
Q 3428 1669 3622 1275 
L 4263 0 
L 3584 0 
L 2988 1197 
Q 2756 1666 2539 1819 
Q 2322 1972 1947 1972 
L 1259 1972 
L 1259 0 
L 628 0 
L 628 4666 
L 2053 4666 
Q 2853 4666 3247 4331 
Q 3641 3997 3641 3322 
Q 3641 2881 3436 2590 
Q 3231 2300 2841 2188 
z
M 1259 4147 
L 1259 2491 
L 2053 2491 
Q 2509 2491 2742 2702 
Q 2975 2913 2975 3322 
Q 2975 3731 2742 3939 
Q 2509 4147 2053 4147 
L 1259 4147 
z
" transform="scale(0.015625)"/>
     <path id="DejaVuSans-2c" d="M 628 4666 
L 1259 4666 
L 1259 0 
L 628 0 
L 628 4666 
z
" transform="scale(0.015625)"/>
     <path id="DejaVuSans-26" d="M 4122 4306 
L 4122 3641 
Q 3803 3938 3442 4084 
Q 3081 4231 2675 4231 
Q 1875 4231 1450 3742 
Q 1025 3253 1025 2328 
Q 1025 1406 1450 917 
Q 1875 428 2675 428 
Q 3081 428 3442 575 
Q 3803 722 4122 1019 
L 4122 359 
Q 3791 134 3420 21 
Q 3050 -91 2638 -91 
Q 1578 -91 968 557 
Q 359 1206 359 2328 
Q 359 3453 968 4101 
Q 1578 4750 2638 4750 
Q 3056 4750 3426 4639 
Q 3797 4528 4122 4306 
z
" transform="scale(0.015625)"/>
     <path id="DejaVuSans-95" d="M 2522 4238 
Q 1834 4238 1429 3725 
Q 1025 3213 1025 2328 
Q 1025 1447 1429 934 
Q 1834 422 2522 422 
Q 3209 422 3611 934 
Q 4013 1447 4013 2328 
Q 4013 3213 3611 3725 
Q 3209 4238 2522 4238 
z
M 2522 4750 
Q 3503 4750 4090 4092 
Q 4678 3434 4678 2328 
Q 4678 1225 4090 567 
Q 3503 -91 2522 -91 
Q 1538 -91 948 565 
Q 359 1222 359 2328 
Q 359 3434 948 4092 
Q 1538 4750 2522 4750 
z
M 2694 5935 
L 3272 5935 
L 2559 5110 
L 2081 5110 
L 2694 5935 
z
" transform="scale(0.015625)"/>
     <path id="DejaVuSans-31" d="M 628 4666 
L 1478 4666 
L 3547 763 
L 3547 4666 
L 4159 4666 
L 4159 0 
L 3309 0 
L 1241 3903 
L 1241 0 
L 628 0 
L 628 4666 
z
" transform="scale(0.015625)"/>
     <path id="DejaVuSans-5c" d="M 2059 -325 
Q 1816 -950 1584 -1140 
Q 1353 -1331 966 -1331 
L 506 -1331 
L 506 -850 
L 844 -850 
Q 1081 -850 1212 -737 
Q 1344 -625 1503 -206 
L 1606 56 
L 191 3500 
L 800 3500 
L 1894 763 
L 2988 3500 
L 3597 3500 
L 2059 -325 
z
" transform="scale(0.015625)"/>
     <path id="DejaVuSans-54" d="M 947 1747 
Q 947 1113 1208 752 
Q 1469 391 1925 391 
Q 2381 391 2643 752 
Q 2906 1113 2906 1747 
Q 2906 2381 2643 2742 
Q 2381 3103 1925 3103 
Q 1469 3103 1208 2742 
Q 947 2381 947 1747 
z
M 2906 525 
Q 2725 213 2448 61 
Q 2172 -91 1784 -91 
Q 1150 -91 751 415 
Q 353 922 353 1747 
Q 353 2572 751 3078 
Q 1150 3584 1784 3584 
Q 2172 3584 2448 3432 
Q 2725 3281 2906 2969 
L 2906 3500 
L 3481 3500 
L 3481 -1331 
L 2906 -1331 
L 2906 525 
z
" transform="scale(0.015625)"/>
     <path id="DejaVuSans-58" d="M 544 1381 
L 544 3500 
L 1119 3500 
L 1119 1403 
Q 1119 906 1312 657 
Q 1506 409 1894 409 
Q 2359 409 2629 706 
Q 2900 1003 2900 1516 
L 2900 3500 
L 3475 3500 
L 3475 0 
L 2900 0 
L 2900 538 
Q 2691 219 2414 64 
Q 2138 -91 1772 -91 
Q 1169 -91 856 284 
Q 544 659 544 1381 
z
M 1991 3584 
L 1991 3584 
z
" transform="scale(0.015625)"/>
     <path id="DejaVuSans-47" d="M 2906 2969 
L 2906 4863 
L 3481 4863 
L 3481 0 
L 2906 0 
L 2906 525 
Q 2725 213 2448 61 
Q 2172 -91 1784 -91 
Q 1150 -91 751 415 
Q 353 922 353 1747 
Q 353 2572 751 3078 
Q 1150 3584 1784 3584 
Q 2172 3584 2448 3432 
Q 2725 3281 2906 2969 
z
M 947 1747 
Q 947 1113 1208 752 
Q 1469 391 1925 391 
Q 2381 391 2643 752 
Q 2906 1113 2906 1747 
Q 2906 2381 2643 2742 
Q 2381 3103 1925 3103 
Q 1469 3103 1208 2742 
Q 947 2381 947 1747 
z
" transform="scale(0.015625)"/>
     <path id="DejaVuSans-55" d="M 2631 2963 
Q 2534 3019 2420 3045 
Q 2306 3072 2169 3072 
Q 1681 3072 1420 2755 
Q 1159 2438 1159 1844 
L 1159 0 
L 581 0 
L 581 3500 
L 1159 3500 
L 1159 2956 
Q 1341 3275 1631 3429 
Q 1922 3584 2338 3584 
Q 2397 3584 2469 3576 
Q 2541 3569 2628 3553 
L 2631 2963 
z
" transform="scale(0.015625)"/>
     <path id="DejaVuSans-45" d="M 3116 1747 
Q 3116 2381 2855 2742 
Q 2594 3103 2138 3103 
Q 1681 3103 1420 2742 
Q 1159 2381 1159 1747 
Q 1159 1113 1420 752 
Q 1681 391 2138 391 
Q 2594 391 2855 752 
Q 3116 1113 3116 1747 
z
M 1159 2969 
Q 1341 3281 1617 3432 
Q 1894 3584 2278 3584 
Q 2916 3584 3314 3078 
Q 3713 2572 3713 1747 
Q 3713 922 3314 415 
Q 2916 -91 2278 -91 
Q 1894 -91 1617 61 
Q 1341 213 1159 525 
L 1159 0 
L 581 0 
L 581 4863 
L 1159 4863 
L 1159 2969 
z
" transform="scale(0.015625)"/>
    </defs>
    <use xlink:href="#DejaVuSans-37"/>
    <use xlink:href="#DejaVuSans-17" transform="translate(61.078125 0)"/>
    <use xlink:href="#DejaVuSans-1d" transform="translate(124.703125 0)"/>
    <use xlink:href="#DejaVuSans-3" transform="translate(158.390625 0)"/>
    <use xlink:href="#DejaVuSans-4f" transform="translate(190.171875 0)"/>
    <use xlink:href="#DejaVuSans-44" transform="translate(217.953125 0)"/>
    <use xlink:href="#DejaVuSans-3" transform="translate(279.234375 0)"/>
    <use xlink:href="#DejaVuSans-50" transform="translate(311.015625 0)"/>
    <use xlink:href="#DejaVuSans-4c" transform="translate(408.421875 0)"/>
    <use xlink:href="#DejaVuSans-56" transform="translate(436.203125 0)"/>
    <use xlink:href="#DejaVuSans-50" transform="translate(488.296875 0)"/>
    <use xlink:href="#DejaVuSans-44" transform="translate(585.703125 0)"/>
    <use xlink:href="#DejaVuSans-3" transform="translate(646.984375 0)"/>
    <use xlink:href="#DejaVuSans-33" transform="translate(678.765625 0)"/>
    <use xlink:href="#DejaVuSans-24" transform="translate(732.671875 0)"/>
    <use xlink:href="#DejaVuSans-35" transform="translate(801.078125 0)"/>
    <use xlink:href="#DejaVuSans-37" transform="translate(863.28125 0)"/>
    <use xlink:href="#DejaVuSans-2c" transform="translate(924.359375 0)"/>
    <use xlink:href="#DejaVuSans-26" transform="translate(953.859375 0)"/>
    <use xlink:href="#DejaVuSans-2c" transform="translate(1023.6875 0)"/>
    <use xlink:href="#DejaVuSans-95" transform="translate(1053.1875 0)"/>
    <use xlink:href="#DejaVuSans-31" transform="translate(1131.90625 0)"/>
    <use xlink:href="#DejaVuSans-3" transform="translate(1206.71875 0)"/>
    <use xlink:href="#DejaVuSans-48" transform="translate(1238.5 0)"/>
    <use xlink:href="#DejaVuSans-51" transform="translate(1300.03125 0)"/>
    <use xlink:href="#DejaVuSans-3" transform="translate(1363.40625 0)"/>
    <use xlink:href="#DejaVuSans-2a" transform="translate(1395.1875 0)"/>
    <use xlink:href="#DejaVuSans-3" transform="translate(1472.671875 0)"/>
    <use xlink:href="#DejaVuSans-5c" transform="translate(1504.453125 0)"/>
    <use xlink:href="#DejaVuSans-3" transform="translate(1563.640625 0)"/>
    <use xlink:href="#DejaVuSans-91d" transform="translate(1595.421875 0)"/>
    <use xlink:href="#DejaVuSans-3" transform="translate(1672.90625 0)"/>
    <use xlink:href="#DejaVuSans-b" transform="translate(1704.6875 0)"/>
    <use xlink:href="#DejaVuSans-4f" transform="translate(1743.703125 0)"/>
    <use xlink:href="#DejaVuSans-44" transform="translate(1771.484375 0)"/>
    <use xlink:href="#DejaVuSans-56" transform="translate(1832.765625 0)"/>
    <use xlink:href="#DejaVuSans-3" transform="translate(1884.859375 0)"/>
    <use xlink:href="#DejaVuSans-48" transform="translate(1916.640625 0)"/>
    <use xlink:href="#DejaVuSans-57" transform="translate(1978.171875 0)"/>
    <use xlink:href="#DejaVuSans-4c" transform="translate(2017.375 0)"/>
    <use xlink:href="#DejaVuSans-54" transform="translate(2045.15625 0)"/>
    <use xlink:href="#DejaVuSans-58" transform="translate(2108.640625 0)"/>
    <use xlink:href="#DejaVuSans-48" transform="translate(2172.015625 0)"/>
    <use xlink:href="#DejaVuSans-57" transform="translate(2233.546875 0)"/>
    <use xlink:href="#DejaVuSans-44" transform="translate(2272.75 0)"/>
    <use xlink:href="#DejaVuSans-56" transform="translate(2334.03125 0)"/>
    <use xlink:href="#DejaVuSans-3" transform="translate(2386.125 0)"/>
    <use xlink:href="#DejaVuSans-47" transform="translate(2417.90625 0)"/>
    <use xlink:href="#DejaVuSans-48" transform="translate(2481.390625 0)"/>
    <use xlink:href="#DejaVuSans-3" transform="translate(2542.921875 0)"/>
    <use xlink:href="#DejaVuSans-46" transform="translate(2574.703125 0)"/>
    <use xlink:href="#DejaVuSans-52" transform="translate(2629.6875 0)"/>
    <use xlink:href="#DejaVuSans-4f" transform="translate(2690.875 0)"/>
    <use xlink:href="#DejaVuSans-52" transform="translate(2718.65625 0)"/>
    <use xlink:href="#DejaVuSans-55" transform="translate(2779.84375 0)"/>
    <use xlink:href="#DejaVuSans-3" transform="translate(2820.953125 0)"/>
    <use xlink:href="#DejaVuSans-56" transform="translate(2852.734375 0)"/>
    <use xlink:href="#DejaVuSans-52" transform="translate(2904.828125 0)"/>
    <use xlink:href="#DejaVuSans-51" transform="translate(2966.015625 0)"/>
    <use xlink:href="#DejaVuSans-3" transform="translate(3029.390625 0)"/>
    <use xlink:href="#DejaVuSans-44" transform="translate(3061.171875 0)"/>
    <use xlink:href="#DejaVuSans-55" transform="translate(3122.453125 0)"/>
    <use xlink:href="#DejaVuSans-45" transform="translate(3163.5625 0)"/>
    <use xlink:href="#DejaVuSans-4c" transform="translate(3227.046875 0)"/>
    <use xlink:href="#DejaVuSans-57" transform="translate(3254.828125 0)"/>
    <use xlink:href="#DejaVuSans-55" transform="translate(3294.03125 0)"/>
    <use xlink:href="#DejaVuSans-44" transform="translate(3335.140625 0)"/>
    <use xlink:href="#DejaVuSans-55" transform="translate(3396.421875 0)"/>
    <use xlink:href="#DejaVuSans-4c" transform="translate(3437.53125 0)"/>
    <use xlink:href="#DejaVuSans-44" transform="translate(3465.3125 0)"/>
    <use xlink:href="#DejaVuSans-56" transform="translate(3526.59375 0)"/>
    <use xlink:href="#DejaVuSans-c" transform="translate(3578.6875 0)"/>
   </g>
  </g>
 </g>
 <defs>
  <clipPath id="pe50d31319a">
   <rect x="10.8" y="52.802813" width="307.8" height="267.597187"/>
  </clipPath>
  <clipPath id="p8f2a613aa1">
   <rect x="329.4" y="52.802813" width="307.8" height="267.597187"/>
  </clipPath>
 </defs>
</svg>
